<svg width="83" height="41" viewBox="0 0 83 41" fill="none" xmlns="http://www.w3.org/2000/svg">
<path d="M0.695312 31V23H3.85156C4.45833 23 4.97526 23.1159 5.40234 23.3477C5.82943 23.5768 6.15495 23.8958 6.37891 24.3047C6.60547 24.7109 6.71875 25.1797 6.71875 25.7109C6.71875 26.2422 6.60417 26.7109 6.375 27.1172C6.14583 27.5234 5.8138 27.8398 5.37891 28.0664C4.94661 28.293 4.42318 28.4062 3.80859 28.4062H1.79688V27.0508H3.53516C3.86068 27.0508 4.12891 26.9948 4.33984 26.8828C4.55339 26.7682 4.71224 26.6107 4.81641 26.4102C4.92318 26.207 4.97656 25.974 4.97656 25.7109C4.97656 25.4453 4.92318 25.2135 4.81641 25.0156C4.71224 24.8151 4.55339 24.6602 4.33984 24.5508C4.1263 24.4388 3.85547 24.3828 3.52734 24.3828H2.38672V31H0.695312ZM7.78613 31V25H9.4502V31H7.78613ZM8.62207 24.2266C8.37467 24.2266 8.16243 24.1445 7.98535 23.9805C7.81087 23.8138 7.72363 23.6146 7.72363 23.3828C7.72363 23.1536 7.81087 22.957 7.98535 22.793C8.16243 22.6263 8.37467 22.543 8.62207 22.543C8.86947 22.543 9.0804 22.6263 9.25488 22.793C9.43197 22.957 9.52051 23.1536 9.52051 23.3828C9.52051 23.6146 9.43197 23.8138 9.25488 23.9805C9.0804 24.1445 8.86947 24.2266 8.62207 24.2266ZM12.4941 31.1133C12.1113 31.1133 11.7702 31.0469 11.4707 30.9141C11.1712 30.7786 10.9342 30.5794 10.7598 30.3164C10.5879 30.0508 10.502 29.7201 10.502 29.3242C10.502 28.9909 10.5632 28.7109 10.6855 28.4844C10.8079 28.2578 10.9746 28.0755 11.1855 27.9375C11.3965 27.7995 11.6361 27.6953 11.9043 27.625C12.1751 27.5547 12.459 27.5052 12.7559 27.4766C13.1048 27.4401 13.3861 27.4062 13.5996 27.375C13.8132 27.3411 13.9681 27.2917 14.0645 27.2266C14.1608 27.1615 14.209 27.0651 14.209 26.9375V26.9141C14.209 26.6667 14.1309 26.4753 13.9746 26.3398C13.821 26.2044 13.6022 26.1367 13.3184 26.1367C13.0189 26.1367 12.7806 26.2031 12.6035 26.3359C12.4264 26.4661 12.3092 26.6302 12.252 26.8281L10.7129 26.7031C10.791 26.3385 10.9447 26.0234 11.1738 25.7578C11.403 25.4896 11.6986 25.2839 12.0605 25.1406C12.4251 24.9948 12.847 24.9219 13.3262 24.9219C13.6595 24.9219 13.9785 24.9609 14.2832 25.0391C14.5905 25.1172 14.8626 25.2383 15.0996 25.4023C15.3392 25.5664 15.528 25.7773 15.666 26.0352C15.804 26.2904 15.873 26.5964 15.873 26.9531V31H14.2949V30.168H14.248C14.1517 30.3555 14.0228 30.5208 13.8613 30.6641C13.6999 30.8047 13.5059 30.9154 13.2793 30.9961C13.0527 31.0742 12.791 31.1133 12.4941 31.1133ZM12.9707 29.9648C13.2155 29.9648 13.4316 29.9167 13.6191 29.8203C13.8066 29.7214 13.9538 29.5885 14.0605 29.4219C14.1673 29.2552 14.2207 29.0664 14.2207 28.8555V28.2188C14.1686 28.2526 14.097 28.2839 14.0059 28.3125C13.9173 28.3385 13.8171 28.3633 13.7051 28.3867C13.5931 28.4076 13.4811 28.4271 13.3691 28.4453C13.2572 28.4609 13.1556 28.4753 13.0645 28.4883C12.8691 28.5169 12.6986 28.5625 12.5527 28.625C12.4069 28.6875 12.2936 28.7721 12.2129 28.8789C12.1322 28.9831 12.0918 29.1133 12.0918 29.2695C12.0918 29.4961 12.1738 29.6693 12.3379 29.7891C12.5046 29.9062 12.7155 29.9648 12.9707 29.9648ZM18.8281 27.5313V31H17.1641V25H18.75V26.0586H18.8203C18.9531 25.7096 19.1758 25.4336 19.4883 25.2305C19.8008 25.0247 20.1797 24.9219 20.625 24.9219C21.0417 24.9219 21.4049 25.013 21.7148 25.1953C22.0247 25.3776 22.2656 25.638 22.4375 25.9766C22.6094 26.3125 22.6953 26.7135 22.6953 27.1797V31H21.0313V27.4766C21.0339 27.1094 20.9401 26.8229 20.75 26.6172C20.5599 26.4089 20.2982 26.3047 19.9648 26.3047C19.7409 26.3047 19.543 26.3529 19.3711 26.4492C19.2018 26.5456 19.069 26.6862 18.9727 26.8711C18.8789 27.0534 18.8307 27.2734 18.8281 27.5313ZM26.7178 31.1172C26.111 31.1172 25.5863 30.9883 25.1436 30.7305C24.7035 30.4701 24.3636 30.1081 24.124 29.6445C23.8844 29.1784 23.7646 28.638 23.7646 28.0234C23.7646 27.4036 23.8844 26.862 24.124 26.3984C24.3636 25.9323 24.7035 25.5703 25.1436 25.3125C25.5863 25.0521 26.111 24.9219 26.7178 24.9219C27.3245 24.9219 27.848 25.0521 28.2881 25.3125C28.7308 25.5703 29.0719 25.9323 29.3115 26.3984C29.5511 26.862 29.6709 27.4036 29.6709 28.0234C29.6709 28.638 29.5511 29.1784 29.3115 29.6445C29.0719 30.1081 28.7308 30.4701 28.2881 30.7305C27.848 30.9883 27.3245 31.1172 26.7178 31.1172ZM26.7256 29.8281C27.0016 29.8281 27.2321 29.75 27.417 29.5938C27.6019 29.4349 27.7412 29.2187 27.835 28.9453C27.9313 28.6719 27.9795 28.3607 27.9795 28.0117C27.9795 27.6628 27.9313 27.3516 27.835 27.0781C27.7412 26.8047 27.6019 26.5885 27.417 26.4297C27.2321 26.2708 27.0016 26.1914 26.7256 26.1914C26.4469 26.1914 26.2126 26.2708 26.0225 26.4297C25.835 26.5885 25.693 26.8047 25.5967 27.0781C25.5029 27.3516 25.4561 27.6628 25.4561 28.0117C25.4561 28.3607 25.5029 28.6719 25.5967 28.9453C25.693 29.2187 25.835 29.4349 26.0225 29.5938C26.2126 29.75 26.4469 29.8281 26.7256 29.8281ZM36.6973 31V23H39.4004C40.0254 23 40.5384 23.1068 40.9395 23.3203C41.3405 23.5312 41.6374 23.8216 41.8301 24.1914C42.0228 24.5612 42.1191 24.9818 42.1191 25.4531C42.1191 25.9245 42.0228 26.3424 41.8301 26.707C41.6374 27.0716 41.3418 27.3581 40.9434 27.5664C40.5449 27.7721 40.0358 27.875 39.416 27.875H37.2285V27H39.3848C39.8118 27 40.1556 26.9375 40.416 26.8125C40.679 26.6875 40.8691 26.5104 40.9863 26.2812C41.1061 26.0495 41.166 25.7734 41.166 25.4531C41.166 25.1328 41.1061 24.8529 40.9863 24.6133C40.8665 24.3737 40.6751 24.1888 40.4121 24.0586C40.1491 23.9258 39.8014 23.8594 39.3691 23.8594H37.666V31H36.6973ZM40.4629 27.4062L42.4316 31H41.3066L39.3691 27.4062H40.4629ZM46.0596 31.125C45.4814 31.125 44.9827 30.9974 44.5635 30.7422C44.1468 30.4844 43.8252 30.125 43.5986 29.6641C43.3747 29.2005 43.2627 28.6615 43.2627 28.0469C43.2627 27.4323 43.3747 26.8906 43.5986 26.4219C43.8252 25.9505 44.1403 25.5833 44.5439 25.3203C44.9502 25.0547 45.4242 24.9219 45.9658 24.9219C46.2783 24.9219 46.5869 24.974 46.8916 25.0781C47.1963 25.1823 47.4736 25.3516 47.7236 25.5859C47.9736 25.8177 48.1729 26.125 48.3213 26.5078C48.4697 26.8906 48.5439 27.362 48.5439 27.9219V28.3125H43.9189V27.5156H47.6064C47.6064 27.1771 47.5387 26.875 47.4033 26.6094C47.2705 26.3437 47.0804 26.1341 46.833 25.9805C46.5882 25.8268 46.2992 25.75 45.9658 25.75C45.5986 25.75 45.2809 25.8411 45.0127 26.0234C44.7471 26.2031 44.5426 26.4375 44.3994 26.7266C44.2562 27.0156 44.1846 27.3255 44.1846 27.6562V28.1875C44.1846 28.6406 44.2627 29.0247 44.4189 29.3398C44.5778 29.6523 44.7979 29.8906 45.0791 30.0547C45.3604 30.2161 45.6872 30.2969 46.0596 30.2969C46.3018 30.2969 46.5205 30.263 46.7158 30.1953C46.9137 30.125 47.0843 30.0208 47.2275 29.8828C47.3708 29.7422 47.4814 29.5677 47.5596 29.3594L48.4502 29.6094C48.3564 29.9115 48.1989 30.1771 47.9775 30.4062C47.7562 30.6328 47.4827 30.8099 47.1572 30.9375C46.8317 31.0625 46.4658 31.125 46.0596 31.125ZM51.7119 31.1406C51.3317 31.1406 50.9867 31.069 50.6768 30.9258C50.3669 30.7799 50.1208 30.5703 49.9385 30.2969C49.7562 30.0208 49.665 29.6875 49.665 29.2969C49.665 28.9531 49.7327 28.6745 49.8682 28.4609C50.0036 28.2448 50.1846 28.0755 50.4111 27.9531C50.6377 27.8307 50.8877 27.7396 51.1611 27.6797C51.4372 27.6172 51.7145 27.5677 51.9932 27.5313C52.3577 27.4844 52.6533 27.4492 52.8799 27.4258C53.109 27.3997 53.2757 27.3568 53.3799 27.2969C53.4867 27.237 53.54 27.1328 53.54 26.9844V26.9531C53.54 26.5677 53.4346 26.2682 53.2236 26.0547C53.0153 25.8411 52.6989 25.7344 52.2744 25.7344C51.8343 25.7344 51.4893 25.8307 51.2393 26.0234C50.9893 26.2161 50.8135 26.4219 50.7119 26.6406L49.8369 26.3281C49.9932 25.9635 50.2015 25.6797 50.4619 25.4766C50.7249 25.2708 51.0114 25.1276 51.3213 25.0469C51.6338 24.9635 51.9411 24.9219 52.2432 24.9219C52.4359 24.9219 52.6572 24.9453 52.9072 24.9922C53.1598 25.0365 53.4033 25.1289 53.6377 25.2695C53.8747 25.4102 54.0713 25.6224 54.2275 25.9062C54.3838 26.1901 54.4619 26.5703 54.4619 27.0469V31H53.54V30.1875H53.4932C53.4307 30.3177 53.3265 30.457 53.1807 30.6055C53.0348 30.7539 52.8408 30.8802 52.5986 30.9844C52.3564 31.0885 52.0609 31.1406 51.7119 31.1406ZM51.8525 30.3125C52.2171 30.3125 52.5244 30.2409 52.7744 30.0977C53.027 29.9544 53.2171 29.7695 53.3447 29.543C53.4749 29.3164 53.54 29.0781 53.54 28.8281V27.9844C53.501 28.0312 53.415 28.0742 53.2822 28.1133C53.152 28.1497 53.001 28.1823 52.8291 28.2109C52.6598 28.237 52.4945 28.2604 52.333 28.2812C52.1742 28.2995 52.0452 28.3151 51.9463 28.3281C51.7067 28.3594 51.4827 28.4102 51.2744 28.4805C51.0687 28.5482 50.902 28.651 50.7744 28.7891C50.6494 28.9245 50.5869 29.1094 50.5869 29.3437C50.5869 29.6641 50.7054 29.9062 50.9424 30.0703C51.182 30.2318 51.4854 30.3125 51.8525 30.3125ZM58.4102 31.125C57.9102 31.125 57.4688 30.9987 57.0859 30.7461C56.7031 30.4909 56.4036 30.1315 56.1875 29.668C55.9714 29.2018 55.8633 28.651 55.8633 28.0156C55.8633 27.3854 55.9714 26.8385 56.1875 26.375C56.4036 25.9115 56.7044 25.5534 57.0898 25.3008C57.4753 25.0482 57.9206 24.9219 58.4258 24.9219C58.8164 24.9219 59.125 24.987 59.3516 25.1172C59.5807 25.2448 59.7552 25.3906 59.875 25.5547C59.9974 25.7161 60.0924 25.849 60.1602 25.9531H60.2383V23H61.1602V31H60.2695V30.0781H60.1602C60.0924 30.1875 59.9961 30.3255 59.8711 30.4922C59.7461 30.6562 59.5677 30.8034 59.3359 30.9336C59.1042 31.0612 58.7956 31.125 58.4102 31.125ZM58.5352 30.2969C58.9049 30.2969 59.2174 30.2005 59.4727 30.0078C59.7279 29.8125 59.9219 29.543 60.0547 29.1992C60.1875 28.8529 60.2539 28.4531 60.2539 28C60.2539 27.5521 60.1888 27.1602 60.0586 26.8242C59.9284 26.4857 59.7357 26.2227 59.4805 26.0352C59.2253 25.8451 58.9102 25.75 58.5352 25.75C58.1445 25.75 57.819 25.8503 57.5586 26.0508C57.3008 26.2487 57.1068 26.5182 56.9766 26.8594C56.849 27.1979 56.7852 27.5781 56.7852 28C56.7852 28.4271 56.8503 28.8151 56.9805 29.1641C57.1133 29.5104 57.3086 29.7865 57.5664 29.9922C57.8268 30.1953 58.1497 30.2969 58.5352 30.2969ZM65.4922 31.125C64.9141 31.125 64.4154 30.9974 63.9961 30.7422C63.5794 30.4844 63.2578 30.125 63.0313 29.6641C62.8073 29.2005 62.6953 28.6615 62.6953 28.0469C62.6953 27.4323 62.8073 26.8906 63.0313 26.4219C63.2578 25.9505 63.5729 25.5833 63.9766 25.3203C64.3828 25.0547 64.8568 24.9219 65.3984 24.9219C65.7109 24.9219 66.0195 24.974 66.3242 25.0781C66.6289 25.1823 66.9063 25.3516 67.1563 25.5859C67.4063 25.8177 67.6055 26.125 67.7539 26.5078C67.9023 26.8906 67.9766 27.362 67.9766 27.9219V28.3125H63.3516V27.5156H67.0391C67.0391 27.1771 66.9714 26.875 66.8359 26.6094C66.7031 26.3437 66.513 26.1341 66.2656 25.9805C66.0208 25.8268 65.7318 25.75 65.3984 25.75C65.0313 25.75 64.7135 25.8411 64.4453 26.0234C64.1797 26.2031 63.9753 26.4375 63.832 26.7266C63.6888 27.0156 63.6172 27.3255 63.6172 27.6562V28.1875C63.6172 28.6406 63.6953 29.0247 63.8516 29.3398C64.0104 29.6523 64.2305 29.8906 64.5117 30.0547C64.793 30.2161 65.1198 30.2969 65.4922 30.2969C65.7344 30.2969 65.9531 30.263 66.1484 30.1953C66.3464 30.125 66.5169 30.0208 66.6602 29.8828C66.8034 29.7422 66.9141 29.5677 66.9922 29.3594L67.8828 29.6094C67.7891 29.9115 67.6315 30.1771 67.4102 30.4062C67.1888 30.6328 66.9154 30.8099 66.5898 30.9375C66.2643 31.0625 65.8984 31.125 65.4922 31.125ZM69.3789 31V25H70.2695V25.9062H70.332C70.4414 25.6094 70.6393 25.3685 70.9258 25.1836C71.2122 24.9987 71.5352 24.9062 71.8945 24.9062C71.9622 24.9062 72.0469 24.9076 72.1484 24.9102C72.25 24.9128 72.3268 24.9167 72.3789 24.9219V25.8594C72.3477 25.8516 72.276 25.8398 72.1641 25.8242C72.0547 25.806 71.9388 25.7969 71.8164 25.7969C71.5247 25.7969 71.2643 25.8581 71.0352 25.9805C70.8086 26.1003 70.6289 26.2669 70.4961 26.4805C70.3659 26.6914 70.3008 26.9323 70.3008 27.2031V31H69.3789Z" fill="black" style="fill:black;fill-opacity:1;"/>
<path d="M50.7119 14.0683C47.6689 14.0683 44.626 14.0683 41.583 14.0683C38.3714 14.0683 37.4942 14.7615 35.4149 16.7721C31.852 20.2172 30.4819 27.3397 32.838 31.643C35.2023 35.9613 42.4293 39.7544 47.7512 39.7544C52.4834 39.7544 58.8077 40.6744 63.0481 38.9533C65.5842 37.9239 68.5669 38.1561 71.1901 36.8253C73.7826 35.51 75.3844 34.1228 75.3844 31.1924C75.3844 29.1397 75.8779 26.9121 75.8779 24.6582C75.8779 22.7424 72.9149 19.4742 71.5465 18.4745C69.5942 17.0482 67.5975 15.4642 65.2687 14.519C64.0318 14.0169 62.8009 13.63 61.5678 13.0669C60.5418 12.5984 58.5654 12.7761 57.7298 12.1656C56.1014 10.9759 52.4472 12.2658 50.4651 12.2658C46.973 12.2658 43.7053 13.6177 40.3494 13.6177" stroke="#969696" style="stroke:#969696;stroke:color(display-p3 0.5884 0.5884 0.5884);stroke-opacity:1;" stroke-width="2" stroke-linecap="round"/>
<path d="M32.9476 11.8152C31.8413 11.7029 29.47 9.96984 29 9.11136" stroke="#969696" style="stroke:#969696;stroke:color(display-p3 0.5884 0.5884 0.5884);stroke-opacity:1;" stroke-width="2" stroke-linecap="round"/>
<path d="M43.3101 1V9.56202" stroke="#969696" style="stroke:#969696;stroke:color(display-p3 0.5884 0.5884 0.5884);stroke-opacity:1;" stroke-width="2" stroke-linecap="round"/>
<path d="M53.1791 9.56197C53.1791 7.49798 52.2872 2.98439 54.6594 1.90121" stroke="#969696" style="stroke:#969696;stroke:color(display-p3 0.5884 0.5884 0.5884);stroke-opacity:1;" stroke-width="2" stroke-linecap="round"/>
<path d="M63.0481 10.0127C64.2692 8.75813 65.3165 7.48144 66.9683 6.63291C67.6462 6.28468 69.1844 5.56443 69.463 5.05569" stroke="#969696" style="stroke:#969696;stroke:color(display-p3 0.5884 0.5884 0.5884);stroke-opacity:1;" stroke-width="2" stroke-linecap="round"/>
<path d="M68.4761 15.8709C70.5629 17.5649 75.8436 15.1978 78.2903 14.9946C80.0607 14.8477 82.7589 15.8087 81.7992 13.6177" stroke="#969696" style="stroke:#969696;stroke:color(display-p3 0.5884 0.5884 0.5884);stroke-opacity:1;" stroke-width="2" stroke-linecap="round"/>
</svg>
