<svg width="74" height="34" viewBox="0 0 74 34" fill="none" xmlns="http://www.w3.org/2000/svg">
    <path d="M0.695312 25V17H3.85156C4.45833 17 4.97526 17.1159 5.40234 17.3477C5.82943 17.5768 6.15495 17.8958 6.37891 18.3047C6.60547 18.7109 6.71875 19.1797 6.71875 19.7109C6.71875 20.2422 6.60417 20.7109 6.375 21.1172C6.14583 21.5234 5.8138 21.8398 5.37891 22.0664C4.94661 22.293 4.42318 22.4062 3.80859 22.4062H1.79688V21.0508H3.53516C3.86068 21.0508 4.12891 20.9948 4.33984 20.8828C4.55339 20.7682 4.71224 20.6107 4.81641 20.4102C4.92318 20.207 4.97656 19.974 4.97656 19.7109C4.97656 19.4453 4.92318 19.2135 4.81641 19.0156C4.71224 18.8151 4.55339 18.6602 4.33984 18.5508C4.1263 18.4388 3.85547 18.3828 3.52734 18.3828H2.38672V25H0.695312ZM7.78613 25V19H9.4502V25H7.78613ZM8.62207 18.2266C8.37467 18.2266 8.16243 18.1445 7.98535 17.9805C7.81087 17.8138 7.72363 17.6146 7.72363 17.3828C7.72363 17.1536 7.81087 16.957 7.98535 16.793C8.16243 16.6263 8.37467 16.543 8.62207 16.543C8.86947 16.543 9.0804 16.6263 9.25488 16.793C9.43197 16.957 9.52051 17.1536 9.52051 17.3828C9.52051 17.6146 9.43197 17.8138 9.25488 17.9805C9.0804 18.1445 8.86947 18.2266 8.62207 18.2266ZM12.4941 25.1133C12.1113 25.1133 11.7702 25.0469 11.4707 24.9141C11.1712 24.7786 10.9342 24.5794 10.7598 24.3164C10.5879 24.0508 10.502 23.7201 10.502 23.3242C10.502 22.9909 10.5632 22.7109 10.6855 22.4844C10.8079 22.2578 10.9746 22.0755 11.1855 21.9375C11.3965 21.7995 11.6361 21.6953 11.9043 21.625C12.1751 21.5547 12.459 21.5052 12.7559 21.4766C13.1048 21.4401 13.3861 21.4062 13.5996 21.375C13.8132 21.3411 13.9681 21.2917 14.0645 21.2266C14.1608 21.1615 14.209 21.0651 14.209 20.9375V20.9141C14.209 20.6667 14.1309 20.4753 13.9746 20.3398C13.821 20.2044 13.6022 20.1367 13.3184 20.1367C13.0189 20.1367 12.7806 20.2031 12.6035 20.3359C12.4264 20.4661 12.3092 20.6302 12.252 20.8281L10.7129 20.7031C10.791 20.3385 10.9447 20.0234 11.1738 19.7578C11.403 19.4896 11.6986 19.2839 12.0605 19.1406C12.4251 18.9948 12.847 18.9219 13.3262 18.9219C13.6595 18.9219 13.9785 18.9609 14.2832 19.0391C14.5905 19.1172 14.8626 19.2383 15.0996 19.4023C15.3392 19.5664 15.528 19.7773 15.666 20.0352C15.804 20.2904 15.873 20.5964 15.873 20.9531V25H14.2949V24.168H14.248C14.1517 24.3555 14.0228 24.5208 13.8613 24.6641C13.6999 24.8047 13.5059 24.9154 13.2793 24.9961C13.0527 25.0742 12.791 25.1133 12.4941 25.1133ZM12.9707 23.9648C13.2155 23.9648 13.4316 23.9167 13.6191 23.8203C13.8066 23.7214 13.9538 23.5885 14.0605 23.4219C14.1673 23.2552 14.2207 23.0664 14.2207 22.8555V22.2188C14.1686 22.2526 14.097 22.2839 14.0059 22.3125C13.9173 22.3385 13.8171 22.3633 13.7051 22.3867C13.5931 22.4076 13.4811 22.4271 13.3691 22.4453C13.2572 22.4609 13.1556 22.4753 13.0645 22.4883C12.8691 22.5169 12.6986 22.5625 12.5527 22.625C12.4069 22.6875 12.2936 22.7721 12.2129 22.8789C12.1322 22.9831 12.0918 23.1133 12.0918 23.2695C12.0918 23.4961 12.1738 23.6693 12.3379 23.7891C12.5046 23.9062 12.7155 23.9648 12.9707 23.9648ZM18.8281 21.5313V25H17.1641V19H18.75V20.0586H18.8203C18.9531 19.7096 19.1758 19.4336 19.4883 19.2305C19.8008 19.0247 20.1797 18.9219 20.625 18.9219C21.0417 18.9219 21.4049 19.013 21.7148 19.1953C22.0247 19.3776 22.2656 19.638 22.4375 19.9766C22.6094 20.3125 22.6953 20.7135 22.6953 21.1797V25H21.0313V21.4766C21.0339 21.1094 20.9401 20.8229 20.75 20.6172C20.5599 20.4089 20.2982 20.3047 19.9648 20.3047C19.7409 20.3047 19.543 20.3529 19.3711 20.4492C19.2018 20.5456 19.069 20.6862 18.9727 20.8711C18.8789 21.0534 18.8307 21.2734 18.8281 21.5313ZM26.7178 25.1172C26.111 25.1172 25.5863 24.9883 25.1436 24.7305C24.7035 24.4701 24.3636 24.1081 24.124 23.6445C23.8844 23.1784 23.7646 22.638 23.7646 22.0234C23.7646 21.4036 23.8844 20.862 24.124 20.3984C24.3636 19.9323 24.7035 19.5703 25.1436 19.3125C25.5863 19.0521 26.111 18.9219 26.7178 18.9219C27.3245 18.9219 27.848 19.0521 28.2881 19.3125C28.7308 19.5703 29.0719 19.9323 29.3115 20.3984C29.5511 20.862 29.6709 21.4036 29.6709 22.0234C29.6709 22.638 29.5511 23.1784 29.3115 23.6445C29.0719 24.1081 28.7308 24.4701 28.2881 24.7305C27.848 24.9883 27.3245 25.1172 26.7178 25.1172ZM26.7256 23.8281C27.0016 23.8281 27.2321 23.75 27.417 23.5938C27.6019 23.4349 27.7412 23.2187 27.835 22.9453C27.9313 22.6719 27.9795 22.3607 27.9795 22.0117C27.9795 21.6628 27.9313 21.3516 27.835 21.0781C27.7412 20.8047 27.6019 20.5885 27.417 20.4297C27.2321 20.2708 27.0016 20.1914 26.7256 20.1914C26.4469 20.1914 26.2126 20.2708 26.0225 20.4297C25.835 20.5885 25.693 20.8047 25.5967 21.0781C25.5029 21.3516 25.4561 21.6628 25.4561 22.0117C25.4561 22.3607 25.5029 22.6719 25.5967 22.9453C25.693 23.2187 25.835 23.4349 26.0225 23.5938C26.2126 23.75 26.4469 23.8281 26.7256 23.8281ZM36.6973 25V17H39.4004C40.0254 17 40.5384 17.1068 40.9395 17.3203C41.3405 17.5312 41.6374 17.8216 41.8301 18.1914C42.0228 18.5612 42.1191 18.9818 42.1191 19.4531C42.1191 19.9245 42.0228 20.3424 41.8301 20.707C41.6374 21.0716 41.3418 21.3581 40.9434 21.5664C40.5449 21.7721 40.0358 21.875 39.416 21.875H37.2285V21H39.3848C39.8118 21 40.1556 20.9375 40.416 20.8125C40.679 20.6875 40.8691 20.5104 40.9863 20.2812C41.1061 20.0495 41.166 19.7734 41.166 19.4531C41.166 19.1328 41.1061 18.8529 40.9863 18.6133C40.8665 18.3737 40.6751 18.1888 40.4121 18.0586C40.1491 17.9258 39.8014 17.8594 39.3691 17.8594H37.666V25H36.6973ZM40.4629 21.4062L42.4316 25H41.3066L39.3691 21.4062H40.4629ZM46.0596 25.125C45.4814 25.125 44.9827 24.9974 44.5635 24.7422C44.1468 24.4844 43.8252 24.125 43.5986 23.6641C43.3747 23.2005 43.2627 22.6615 43.2627 22.0469C43.2627 21.4323 43.3747 20.8906 43.5986 20.4219C43.8252 19.9505 44.1403 19.5833 44.5439 19.3203C44.9502 19.0547 45.4242 18.9219 45.9658 18.9219C46.2783 18.9219 46.5869 18.974 46.8916 19.0781C47.1963 19.1823 47.4736 19.3516 47.7236 19.5859C47.9736 19.8177 48.1729 20.125 48.3213 20.5078C48.4697 20.8906 48.5439 21.362 48.5439 21.9219V22.3125H43.9189V21.5156H47.6064C47.6064 21.1771 47.5387 20.875 47.4033 20.6094C47.2705 20.3437 47.0804 20.1341 46.833 19.9805C46.5882 19.8268 46.2992 19.75 45.9658 19.75C45.5986 19.75 45.2809 19.8411 45.0127 20.0234C44.7471 20.2031 44.5426 20.4375 44.3994 20.7266C44.2562 21.0156 44.1846 21.3255 44.1846 21.6562V22.1875C44.1846 22.6406 44.2627 23.0247 44.4189 23.3398C44.5778 23.6523 44.7979 23.8906 45.0791 24.0547C45.3604 24.2161 45.6872 24.2969 46.0596 24.2969C46.3018 24.2969 46.5205 24.263 46.7158 24.1953C46.9137 24.125 47.0843 24.0208 47.2275 23.8828C47.3708 23.7422 47.4814 23.5677 47.5596 23.3594L48.4502 23.6094C48.3564 23.9115 48.1989 24.1771 47.9775 24.4062C47.7562 24.6328 47.4827 24.8099 47.1572 24.9375C46.8317 25.0625 46.4658 25.125 46.0596 25.125ZM51.7119 25.1406C51.3317 25.1406 50.9867 25.069 50.6768 24.9258C50.3669 24.7799 50.1208 24.5703 49.9385 24.2969C49.7562 24.0208 49.665 23.6875 49.665 23.2969C49.665 22.9531 49.7327 22.6745 49.8682 22.4609C50.0036 22.2448 50.1846 22.0755 50.4111 21.9531C50.6377 21.8307 50.8877 21.7396 51.1611 21.6797C51.4372 21.6172 51.7145 21.5677 51.9932 21.5313C52.3577 21.4844 52.6533 21.4492 52.8799 21.4258C53.109 21.3997 53.2757 21.3568 53.3799 21.2969C53.4867 21.237 53.54 21.1328 53.54 20.9844V20.9531C53.54 20.5677 53.4346 20.2682 53.2236 20.0547C53.0153 19.8411 52.6989 19.7344 52.2744 19.7344C51.8343 19.7344 51.4893 19.8307 51.2393 20.0234C50.9893 20.2161 50.8135 20.4219 50.7119 20.6406L49.8369 20.3281C49.9932 19.9635 50.2015 19.6797 50.4619 19.4766C50.7249 19.2708 51.0114 19.1276 51.3213 19.0469C51.6338 18.9635 51.9411 18.9219 52.2432 18.9219C52.4359 18.9219 52.6572 18.9453 52.9072 18.9922C53.1598 19.0365 53.4033 19.1289 53.6377 19.2695C53.8747 19.4102 54.0713 19.6224 54.2275 19.9062C54.3838 20.1901 54.4619 20.5703 54.4619 21.0469V25H53.54V24.1875H53.4932C53.4307 24.3177 53.3265 24.457 53.1807 24.6055C53.0348 24.7539 52.8408 24.8802 52.5986 24.9844C52.3564 25.0885 52.0609 25.1406 51.7119 25.1406ZM51.8525 24.3125C52.2171 24.3125 52.5244 24.2409 52.7744 24.0977C53.027 23.9544 53.2171 23.7695 53.3447 23.543C53.4749 23.3164 53.54 23.0781 53.54 22.8281V21.9844C53.501 22.0312 53.415 22.0742 53.2822 22.1133C53.152 22.1497 53.001 22.1823 52.8291 22.2109C52.6598 22.237 52.4945 22.2604 52.333 22.2812C52.1742 22.2995 52.0452 22.3151 51.9463 22.3281C51.7067 22.3594 51.4827 22.4102 51.2744 22.4805C51.0687 22.5482 50.902 22.651 50.7744 22.7891C50.6494 22.9245 50.5869 23.1094 50.5869 23.3437C50.5869 23.6641 50.7054 23.9062 50.9424 24.0703C51.182 24.2318 51.4854 24.3125 51.8525 24.3125ZM58.4102 25.125C57.9102 25.125 57.4688 24.9987 57.0859 24.7461C56.7031 24.4909 56.4036 24.1315 56.1875 23.668C55.9714 23.2018 55.8633 22.651 55.8633 22.0156C55.8633 21.3854 55.9714 20.8385 56.1875 20.375C56.4036 19.9115 56.7044 19.5534 57.0898 19.3008C57.4753 19.0482 57.9206 18.9219 58.4258 18.9219C58.8164 18.9219 59.125 18.987 59.3516 19.1172C59.5807 19.2448 59.7552 19.3906 59.875 19.5547C59.9974 19.7161 60.0924 19.849 60.1602 19.9531H60.2383V17H61.1602V25H60.2695V24.0781H60.1602C60.0924 24.1875 59.9961 24.3255 59.8711 24.4922C59.7461 24.6562 59.5677 24.8034 59.3359 24.9336C59.1042 25.0612 58.7956 25.125 58.4102 25.125ZM58.5352 24.2969C58.9049 24.2969 59.2174 24.2005 59.4727 24.0078C59.7279 23.8125 59.9219 23.543 60.0547 23.1992C60.1875 22.8529 60.2539 22.4531 60.2539 22C60.2539 21.5521 60.1888 21.1602 60.0586 20.8242C59.9284 20.4857 59.7357 20.2227 59.4805 20.0352C59.2253 19.8451 58.9102 19.75 58.5352 19.75C58.1445 19.75 57.819 19.8503 57.5586 20.0508C57.3008 20.2487 57.1068 20.5182 56.9766 20.8594C56.849 21.1979 56.7852 21.5781 56.7852 22C56.7852 22.4271 56.8503 22.8151 56.9805 23.1641C57.1133 23.5104 57.3086 23.7865 57.5664 23.9922C57.8268 24.1953 58.1497 24.2969 58.5352 24.2969Z" fill="black" style="fill:black;fill-opacity:1;"/>
    <path d="M47.1583 11.6497C44.8937 11.6497 42.629 11.6497 40.3644 11.6497C37.9743 11.6497 37.3215 12.2146 35.774 13.8531C33.1225 16.6606 32.1028 22.4649 33.8563 25.9718C35.6158 29.4909 40.9943 32.582 44.9549 32.582C48.4767 32.582 53.1833 33.3317 56.3391 31.9292C58.2265 31.0903 60.4462 31.2796 62.3984 30.195C64.3278 29.1231 65.5199 27.9926 65.5199 25.6046C65.5199 23.9318 65.8871 22.1165 65.8871 20.2797C65.8871 18.7185 63.682 16.0552 62.6636 15.2405C61.2107 14.0781 59.7248 12.7873 57.9916 12.017C57.0711 11.6079 56.1551 11.2925 55.2374 10.8337C54.4738 10.4519 53.003 10.5967 52.3811 10.0992C51.1692 9.12966 48.4497 10.1808 46.9746 10.1808C44.3757 10.1808 41.9439 11.2825 39.4464 11.2825" stroke="#969696" style="stroke:#969696;stroke:color(display-p3 0.5884 0.5884 0.5884);stroke-opacity:1;" stroke-width="2" stroke-linecap="round"/>
    <path d="M33.9379 9.81357C33.1145 9.72208 31.3498 8.30977 31 7.61017" stroke="#969696" style="stroke:#969696;stroke:color(display-p3 0.5884 0.5884 0.5884);stroke-opacity:1;" stroke-width="2" stroke-linecap="round"/>
    <path d="M41.6498 1V7.97743" stroke="#969696" style="stroke:#969696;stroke:color(display-p3 0.5884 0.5884 0.5884);stroke-opacity:1;" stroke-width="2" stroke-linecap="round"/>
    <path d="M48.9945 7.9774C48.9945 6.29539 48.3307 2.61714 50.0962 1.73444" stroke="#969696" style="stroke:#969696;stroke:color(display-p3 0.5884 0.5884 0.5884);stroke-opacity:1;" stroke-width="2" stroke-linecap="round"/>
    <path d="M56.3391 8.34465C57.2479 7.3223 58.0273 6.28189 59.2566 5.5904C59.7611 5.30662 60.9058 4.71967 61.1131 4.30508" stroke="#969696" style="stroke:#969696;stroke:color(display-p3 0.5884 0.5884 0.5884);stroke-opacity:1;" stroke-width="2" stroke-linecap="round"/>
    <path d="M60.3787 13.1187C61.9317 14.4992 65.8616 12.5701 67.6825 12.4046C69.0001 12.2848 71.0081 13.068 70.294 11.2825" stroke="#969696" style="stroke:#969696;stroke:color(display-p3 0.5884 0.5884 0.5884);stroke-opacity:1;" stroke-width="2" stroke-linecap="round"/>
</svg>
    